<mxfile host="65bd71144e">
    <diagram id="HOeaKhsMxmbAKQn010e5" name="Page-1">
        <mxGraphModel dx="1320" dy="790" grid="1" gridSize="10" guides="1" tooltips="1" connect="1" arrows="1" fold="1" page="1" pageScale="1" pageWidth="850" pageHeight="1100" math="0" shadow="0">
            <root>
                <mxCell id="0"/>
                <mxCell id="1" parent="0"/>
                <mxCell id="6" value="Code Pushed&amp;nbsp;&lt;br&gt;to github" style="edgeStyle=none;html=1;" edge="1" parent="1" source="2" target="5">
                    <mxGeometry relative="1" as="geometry"/>
                </mxCell>
                <mxCell id="2" value="" style="fontColor=#0066CC;verticalAlign=top;verticalLabelPosition=bottom;labelPosition=center;align=center;html=1;outlineConnect=0;fillColor=#CCCCCC;strokeColor=#6881B3;gradientColor=none;gradientDirection=north;strokeWidth=2;shape=mxgraph.networks.pc;" vertex="1" parent="1">
                    <mxGeometry x="70" y="260" width="100" height="70" as="geometry"/>
                </mxCell>
                <mxCell id="4" value="User Write code on local &lt;br&gt;machine and push code to github" style="edgeStyle=none;html=1;" edge="1" parent="1" source="3" target="2">
                    <mxGeometry relative="1" as="geometry"/>
                </mxCell>
                <mxCell id="3" value="Actor" style="shape=umlActor;verticalLabelPosition=bottom;verticalAlign=top;html=1;outlineConnect=0;" vertex="1" parent="1">
                    <mxGeometry x="105" y="440" width="30" height="60" as="geometry"/>
                </mxCell>
                <mxCell id="8" value="" style="edgeStyle=none;html=1;" edge="1" parent="1" source="5" target="7">
                    <mxGeometry relative="1" as="geometry"/>
                </mxCell>
                <mxCell id="10" style="edgeStyle=none;html=1;entryX=-0.1;entryY=0.46;entryDx=0;entryDy=0;entryPerimeter=0;" edge="1" parent="1" source="5" target="9">
                    <mxGeometry relative="1" as="geometry"/>
                </mxCell>
                <mxCell id="5" value="" style="dashed=0;outlineConnect=0;html=1;align=center;labelPosition=center;verticalLabelPosition=bottom;verticalAlign=top;shape=mxgraph.weblogos.github" vertex="1" parent="1">
                    <mxGeometry x="290" y="255" width="75" height="75" as="geometry"/>
                </mxCell>
                <mxCell id="7" value="On Push&lt;br&gt;Github actions gets triggered and runs testcases" style="whiteSpace=wrap;html=1;verticalAlign=top;dashed=0;" vertex="1" parent="1">
                    <mxGeometry x="267.5" y="390" width="120" height="87.5" as="geometry"/>
                </mxCell>
                <mxCell id="12" value="" style="edgeStyle=none;html=1;" edge="1" parent="1" source="9" target="11">
                    <mxGeometry relative="1" as="geometry"/>
                </mxCell>
                <mxCell id="14" style="edgeStyle=none;html=1;" edge="1" parent="1" source="9" target="13">
                    <mxGeometry relative="1" as="geometry"/>
                </mxCell>
                <mxCell id="9" value="" style="sketch=0;aspect=fixed;html=1;points=[];align=center;image;fontSize=12;image=img/lib/mscae/Azure_DevOps.svg;" vertex="1" parent="1">
                    <mxGeometry x="490" y="270" width="50" height="50" as="geometry"/>
                </mxCell>
                <mxCell id="11" value="On Push&lt;br&gt;Azure deops pipeline gets triggered and build happens" style="whiteSpace=wrap;html=1;verticalAlign=top;sketch=0;labelBackgroundColor=default;" vertex="1" parent="1">
                    <mxGeometry x="455" y="395" width="120" height="75" as="geometry"/>
                </mxCell>
                <mxCell id="16" value="" style="edgeStyle=none;html=1;" edge="1" parent="1" source="13" target="15">
                    <mxGeometry relative="1" as="geometry"/>
                </mxCell>
                <mxCell id="13" value="" style="sketch=0;aspect=fixed;html=1;points=[];align=center;image;fontSize=12;image=img/lib/mscae/App_Services.svg;" vertex="1" parent="1">
                    <mxGeometry x="680" y="270" width="50" height="50" as="geometry"/>
                </mxCell>
                <mxCell id="15" value="On Successful Build code gets deployed to Azure App Services as web application" style="whiteSpace=wrap;html=1;verticalAlign=top;sketch=0;labelBackgroundColor=default;" vertex="1" parent="1">
                    <mxGeometry x="645" y="395" width="120" height="75" as="geometry"/>
                </mxCell>
            </root>
        </mxGraphModel>
    </diagram>
</mxfile>